<svg width="636" height="618" viewBox="0 0 636 618" fill="none" xmlns="http://www.w3.org/2000/svg">
<path style="mix-blend-mode:screen" opacity="0.7" d="M673.147 616.057C663.633 621.242 654.029 626.426 644.336 631.611C638.116 634.76 631.699 637.488 625.129 639.777C614.269 643.723 603.05 648.059 594.793 655.193C590.531 658.811 586.983 663.225 584.336 668.2C581.543 673.944 579.607 680.084 578.592 686.415C576.932 694.352 575.204 702.473 569.258 711.098C566.424 715.095 563.115 718.717 559.408 721.88H561.45C564.805 718.908 567.817 715.552 570.425 711.878C576.528 703.138 578.278 694.788 579.961 686.644C580.952 680.503 582.82 674.544 585.503 668.957C588.074 664.128 591.515 659.839 595.645 656.317C603.723 649.297 614.83 645.145 625.578 641.108C632.203 638.803 638.672 636.052 644.942 632.872C654.441 627.81 663.842 622.74 673.147 617.663V616.057Z" fill="url(#paint0_linear_0_201)"/>
<path style="mix-blend-mode:screen" opacity="0.7" d="M673.147 602.224L665.854 605.895L656.879 610.483C645.323 616.195 635.675 621.035 626.542 625.509C620.43 628.341 614.159 630.8 607.762 632.872C597.193 636.52 586.288 640.328 577.986 646.774C573.778 649.997 570.129 653.921 567.194 658.382C564.06 663.511 561.644 669.063 560.013 674.876C557.872 682.811 554.228 690.238 549.288 696.738C538.301 709.926 522.917 718.476 506.117 720.733C504.277 720.94 502.1 721.169 499.991 721.307C486.844 721.971 473.664 721.341 460.635 719.425C443.178 717.315 426.506 715.342 402.857 721.903H408.264C429.064 716.994 444.434 718.829 460.478 720.756C463.799 721.146 467.209 721.559 470.597 721.903H507.598C524.231 719.392 539.393 710.752 550.23 697.609C555.268 690.987 558.988 683.419 561.18 675.335C562.778 669.63 565.142 664.18 568.203 659.139C571.092 654.79 574.68 650.974 578.817 647.852C586.939 641.521 597.754 637.759 608.211 634.088C614.649 632.012 620.958 629.537 627.103 626.679C636.258 622.251 645.907 617.434 657.485 611.607L666.46 607.019L673.191 603.647L673.147 602.224Z" fill="url(#paint1_linear_0_201)"/>
<path style="mix-blend-mode:screen" opacity="0.7" d="M673.147 589.24C663.655 594.195 653.94 598.714 644.403 603.142L638.525 605.849C629.437 610.093 619.699 614.52 608.749 619.383C602.802 621.887 596.728 624.062 590.552 625.898C580.253 629.179 569.617 632.574 561.248 638.332C557.05 641.152 553.272 644.574 550.029 648.495C546.521 653.056 543.589 658.05 541.3 663.36C538.327 670.335 534.249 676.76 529.228 682.377C517.798 694.263 502.973 702.135 486.888 704.858C485.07 705.134 482.983 705.455 481.009 705.684C468.443 707.018 455.808 707.547 443.178 707.267C423.253 707.152 404.427 707.038 373.979 716.443C368.257 718.21 362.76 720.045 357.374 721.834H361.638C365.789 720.458 370.007 719.081 374.36 717.728C404.607 708.345 423.343 708.552 443.156 708.552C455.845 708.851 468.541 708.33 481.166 706.992C483.163 706.762 485.25 706.441 487.089 706.143C503.5 703.366 518.625 695.333 530.283 683.203C535.385 677.486 539.525 670.943 542.534 663.841C544.79 658.634 547.669 653.734 551.106 649.252C554.241 645.432 557.899 642.094 561.966 639.341C570.178 633.698 580.746 630.326 590.956 627.068C597.166 625.207 603.277 623.018 609.265 620.508C620.238 615.759 629.976 611.331 639.063 607.019L644.942 604.289C654.299 600.022 663.857 595.549 673.147 590.754V589.24Z" fill="url(#paint2_linear_0_201)"/>
<path style="mix-blend-mode:screen" opacity="0.7" d="M673.147 575.086C657.956 585.272 640.724 592.613 623.985 599.701L620.148 601.33C611.509 605 601.951 608.923 590.978 613.282C585.481 615.576 579.535 617.181 573.252 618.994C563.245 621.884 552.923 624.866 544.487 629.867C540.348 632.329 536.501 635.269 533.021 638.63C529.047 642.65 525.518 647.105 522.497 651.913C518.794 657.811 514.376 663.207 509.348 667.971C497.46 678.525 483.108 685.763 467.681 688.984L466.918 689.145C465.257 689.466 463.642 689.787 462.049 690.062C447.397 692.586 435.594 694.008 424.173 695.361C402.45 697.65 380.884 701.297 359.596 706.281L357.689 706.74C325.423 714.264 299.933 720.206 266.859 711.328C255.64 708.277 244.286 702.955 232.394 697.334C225.034 693.847 217.338 690.246 209.776 687.309C194.082 681.011 177.249 678.226 160.413 679.143C135.731 680.496 121.595 690.498 106.561 701.073C97.1667 708.228 86.976 714.219 76.2021 718.921C73.543 720.006 70.814 720.903 68.0346 721.605C67.4961 721.743 66.9575 721.834 66.3966 721.949H71.6472C73.3076 721.444 74.9904 720.848 76.6733 720.183C87.5748 715.427 97.886 709.367 107.391 702.129C122.223 691.645 136.224 681.758 160.547 680.427C177.191 679.51 193.834 682.256 209.35 688.479C216.934 691.484 224.541 695.086 231.788 698.55C243.793 704.193 255.102 709.538 266.523 712.544C299.933 721.513 325.535 715.526 357.981 707.955L359.888 707.52C381.13 702.561 402.652 698.953 424.33 696.715C435.751 695.338 447.576 693.939 462.273 691.393C463.866 691.117 465.504 690.796 467.165 690.452L467.928 690.315C483.6 687.049 498.179 679.691 510.246 668.957C515.39 664.107 519.913 658.611 523.709 652.601C526.662 647.869 530.116 643.484 534.008 639.525C537.402 636.227 541.168 633.355 545.227 630.968C553.507 626.059 563.761 623.077 573.679 620.21C579.714 618.466 585.975 616.677 591.517 614.474C602.534 610.093 612.093 606.193 620.687 602.5L624.501 600.871C641.038 593.874 658.046 586.648 673.169 576.646L673.147 575.086Z" fill="url(#paint3_linear_0_201)"/>
<path style="mix-blend-mode:screen" opacity="0.7" d="M673.147 554.624C668.506 559.797 663.455 564.569 658.046 568.892C642.204 581.349 622.795 588.667 604.037 595.939L601.793 596.81C593.469 599.999 584.112 603.394 573.185 607.156C567.777 609.038 561.966 610.529 555.885 612.112C546.213 614.23 536.778 617.351 527.725 621.425C523.59 623.505 519.647 625.961 515.945 628.766C511.426 632.303 507.228 636.249 503.402 640.557C499.122 645.337 494.445 649.727 489.423 653.679C477.128 662.812 463.212 669.412 448.451 673.109L446.633 673.568L443.066 674.463C432.497 676.94 423.567 679.234 414.928 681.345C391.99 687.61 368.721 692.535 345.235 696.095C313.822 700.89 287.771 701.486 255.483 689.603C245.575 685.705 235.902 681.208 226.515 676.137C218.325 671.916 209.844 667.535 201.272 663.979C186.235 657.565 170.005 654.597 153.726 655.285C128.617 656.409 115.828 667.168 102.297 678.546C94.3094 685.291 86.0298 692.31 74.7883 697.472C72.2758 698.691 69.6721 699.704 67.0022 700.5C55.2895 703.826 43.5992 704.216 33.3449 704.56C23.0907 704.904 13.4424 705.226 5.5217 708.345C-1.20975 710.961 -7.26816 713.645 -13.7976 716.512C-17.8141 718.278 -21.8977 720.068 -26.1834 721.88H-22.7505C-19.4969 720.504 -16.3556 719.127 -13.2367 717.751C-6.75211 714.883 -0.603973 712.199 6.01529 709.607C13.734 706.579 23.2927 706.235 33.4123 705.914C43.532 705.593 55.5587 705.157 67.451 701.785C70.1314 700.985 72.7491 699.981 75.2819 698.779C86.6805 693.457 95.0275 686.438 103.083 679.67C116.546 668.407 129.089 657.785 153.748 656.73C169.836 656.056 185.874 658.993 200.734 665.333C209.26 668.888 217.697 673.247 225.887 677.445C235.338 682.552 245.079 687.079 255.056 691.003C287.592 702.84 313.822 702.243 345.415 697.426C368.944 693.876 392.257 688.967 415.242 682.721C423.769 680.427 432.744 678.133 443.357 675.839L446.948 674.945L448.765 674.486C463.694 670.722 477.763 664.021 490.186 654.757C495.262 650.736 499.992 646.277 504.322 641.429C508.092 637.172 512.23 633.272 516.685 629.775C520.332 627.021 524.214 624.61 528.286 622.572C537.261 618.552 546.614 615.477 556.199 613.396C562.055 611.905 568.136 610.322 573.589 608.441C584.516 604.656 593.783 601.261 602.242 598.072L604.486 597.2C623.356 589.997 642.855 582.542 658.854 569.971C663.951 565.882 668.729 561.396 673.147 556.551V554.624Z" fill="url(#paint4_linear_0_201)"/>
<path style="mix-blend-mode:screen" opacity="0.7" d="M673.147 524.572C671.2 526.413 669.35 528.358 667.604 530.399C664.688 533.794 661.86 537.762 658.854 541.983C657.103 544.415 655.308 546.939 653.468 549.393C648.921 555.586 643.696 561.228 637.896 566.208C622.683 578.986 603.274 585.57 584.381 591.947L583.416 592.268C575.361 594.998 566.206 597.866 555.391 601.054C550.029 602.637 544.419 603.899 538.473 605.229C529.106 607.051 519.899 609.644 510.941 612.983C506.782 614.688 502.735 616.665 498.825 618.902C493.487 622.053 488.36 625.563 483.477 629.408C479.236 632.62 474.861 635.946 469.431 639.318C456.815 646.991 443.306 653.01 429.221 657.235L426.574 658.061L424.083 658.84C412.864 662.213 403.62 665.998 394.599 669.668C376.335 677.078 359.08 684.052 330.853 685.91C300.202 687.952 275.049 682.79 244.017 668.131C236.657 664.644 229.297 660.469 221.579 656.042C212.267 650.766 202.618 645.283 192.768 640.947C178.39 634.425 162.762 631.289 147.039 631.771C121.572 632.666 110.196 644.159 98.1688 656.34C91.1232 663.451 83.8308 670.815 73.3297 676.413C70.9867 677.672 68.5387 678.716 66.0149 679.532C56.3289 682.279 46.354 683.819 36.3068 684.121C25.3794 684.878 15.0579 685.589 6.89041 690.085C0.809662 693.434 -4.75504 696.967 -10.6338 700.66C-23.1302 708.975 -36.3499 716.094 -50.125 721.926H-46.647C-33.9113 716.262 -21.6621 709.517 -10.0279 701.761C-4.1716 698.045 1.37057 694.558 7.42886 691.232C15.3496 686.873 25.5365 686.162 36.3068 685.405C46.4596 685.131 56.5415 683.59 66.3291 680.817C68.9262 679.966 71.4483 678.892 73.8683 677.606C84.5264 671.916 91.8188 664.484 98.999 657.281C110.846 645.306 122.043 633.996 146.994 633.125C162.525 632.685 177.954 635.821 192.14 642.301C201.945 646.613 211.571 652.073 220.861 657.326C228.669 661.777 236.051 665.952 243.456 669.462C274.712 684.235 300.045 689.42 330.965 687.378C359.394 685.497 376.739 678.477 395.093 671.045C404.068 667.397 413.425 663.612 424.487 660.24L426.978 659.46L429.625 658.634C443.821 654.379 457.436 648.313 470.149 640.58C475.624 637.185 480.021 633.836 484.285 630.624C489.115 626.792 494.198 623.304 499.498 620.186C503.36 617.981 507.355 616.028 511.457 614.337C520.352 611.033 529.491 608.463 538.787 606.652C544.756 605.321 550.388 604.037 555.773 602.454C566.61 599.265 575.788 596.397 583.843 593.668L584.83 593.346C603.768 586.923 623.356 580.293 638.682 567.355C644.531 562.308 649.801 556.598 654.388 550.334C656.251 547.856 658.068 545.333 659.796 542.878C662.78 538.703 665.607 534.757 668.48 531.408C670.028 529.596 671.554 527.99 672.967 526.545L673.147 524.572Z" fill="url(#paint5_linear_0_201)"/>
<path style="mix-blend-mode:screen" opacity="0.7" d="M673.147 492.708L669.916 495.622C664.406 500.339 659.232 505.452 654.433 510.923C650.455 515.685 646.854 520.763 643.663 526.109C641.98 528.862 640.365 531.752 638.637 534.826C636.393 538.634 634.284 542.557 631.905 546.296C627.991 552.656 623.225 558.424 617.747 563.433C603.274 576.6 583.82 582.266 565.129 587.749C557.052 590.043 548.076 592.337 537.688 594.952C532.325 596.237 526.76 597.246 520.859 598.416C511.889 599.938 503.011 601.983 494.27 604.541C490.253 605.803 486.304 607.225 481.839 609.129C474.434 612.157 468.129 615.461 461.443 618.971C457.695 620.943 453.836 622.985 449.573 625.073C436.663 631.216 423.452 636.676 409.992 641.429L406.177 642.874L405.1 643.287C395.391 647.215 385.992 651.901 376.985 657.304C359.641 667.168 343.328 676.504 316.402 675.816C285.954 675.036 261.721 664.071 232.484 646.613C227.727 643.746 222.992 640.718 217.966 637.437C207.104 630.168 195.803 623.609 184.129 617.801C170.42 611.138 155.396 607.787 140.218 608.005C114.459 608.648 104.519 620.875 93.9953 633.813C87.8922 641.337 81.5645 649.114 71.7591 655.101C69.5347 656.436 67.1905 657.55 64.7583 658.428C56.2368 661.202 47.4107 662.882 38.4834 663.429C27.0847 664.621 16.2919 665.723 8.07956 671.733C2.13345 676.023 -3.1395 680.588 -8.83878 685.497C-20.372 695.361 -32.3988 705.661 -50.1698 713.392C-68.9955 721.628 -89.5489 723.004 -114.882 717.751C-122.897 715.819 -130.667 712.948 -138.038 709.194C-151.299 703.023 -163.842 697.196 -182.061 702.174C-187.974 703.886 -193.586 706.541 -198.688 710.043L-202.054 712.337C-207.344 716.126 -212.998 719.354 -218.927 721.972H-215.719C-210.79 719.475 -206.037 716.631 -201.493 713.461L-198.15 711.167C-193.136 707.711 -187.624 705.079 -181.815 703.367C-163.864 698.527 -151.635 704.262 -138.576 710.249C-131.126 714.066 -123.264 716.976 -115.151 718.921C-108.62 720.292 -102.01 721.227 -95.3603 721.719H-78.9805C-68.8957 721.033 -58.9927 718.637 -49.6762 714.631C-31.7257 706.785 -19.6092 696.485 -7.89639 686.438C-2.2869 681.643 3.03098 677.101 8.93222 672.834C16.8753 667.053 27.4886 665.952 38.7077 664.782C47.7367 664.226 56.6657 662.547 65.2969 659.781C67.7759 658.857 70.1648 657.697 72.4322 656.317C82.4397 650.215 88.8346 642.347 95.0275 634.73C105.327 622.045 115.087 610.047 140.24 609.496C155.218 609.263 170.046 612.568 183.568 619.154C195.218 624.889 206.498 631.379 217.338 638.584C222.364 641.796 227.121 644.847 231.9 647.76C261.317 665.333 285.752 676.367 316.425 677.147C343.575 677.858 360.112 668.43 377.614 658.496C386.564 653.126 395.903 648.463 405.549 644.549L406.604 644.136C407.86 643.654 409.117 643.172 410.418 642.714C423.888 637.914 437.113 632.424 450.044 626.266C454.307 624.178 458.189 622.136 461.936 620.163C468.503 616.555 475.243 613.285 482.131 610.368C486.618 608.556 490.478 607.134 494.449 605.78C503.15 603.254 511.982 601.224 520.904 599.701C526.805 598.577 532.392 597.522 537.8 596.214C548.189 593.714 557.186 591.374 565.286 588.988C584.224 583.482 603.79 577.77 618.51 564.465C624.038 559.355 628.848 553.488 632.803 547.03C635.226 543.222 637.448 539.277 639.534 535.56C641.419 532.44 643.057 529.55 644.718 526.728C647.898 521.443 651.477 516.419 655.421 511.703C660.196 506.284 665.339 501.217 670.813 496.539L673.057 494.429L673.147 492.708Z" fill="url(#paint6_linear_0_201)"/>
<path style="mix-blend-mode:screen" opacity="0.7" d="M-364.865 663.383C-361.943 665.109 -358.813 666.435 -355.553 667.328C-351.778 668.354 -347.916 669.014 -344.02 669.301C-338.456 669.737 -332.801 669.668 -327.192 669.599C-319.698 669.278 -312.192 669.608 -304.753 670.586C-286.96 673.545 -271.814 683.157 -255.12 694.558L-253.864 695.407C-246.512 700.885 -238.551 705.452 -230.146 709.011C-212.959 715.526 -202.099 707.382 -190.61 698.756C-188.815 697.38 -186.975 696.026 -185.113 694.696C-180.451 691.195 -175.205 688.591 -169.631 687.011C-152.668 682.423 -141.314 689.305 -129.242 696.348C-122.031 701.045 -114.225 704.712 -106.041 707.244C-81.1796 714.126 -61.1647 712.91 -43.2142 703.643C-27.2607 695.453 -16.2885 683.272 -5.87714 671.526C-0.71637 665.768 4.6015 659.804 10.3905 654.505C18.2439 647.256 29.1039 645.742 40.6147 644.113C48.6823 643.334 56.6212 641.515 64.2422 638.699C66.6017 637.703 68.857 636.465 70.9736 635.006C80.3528 628.468 85.8052 620.141 91.168 612.066C99.9413 598.692 108.221 586.029 133.554 585.707C147.987 585.695 162.215 589.194 175.064 595.916C189.806 603.234 203.471 613.419 216.665 623.283L220.457 626.082C246.059 645.099 270.247 663.062 302.042 666.938C328.07 670.15 343.866 658.313 360.583 645.788C368.723 639.264 377.489 633.599 386.746 628.881C388.249 628.17 389.775 627.481 391.233 626.793C403.328 621.563 416.858 616.677 429.939 611.951C441.876 607.638 452.781 603.784 464.965 600.481C469.565 599.265 473.716 598.187 477.665 597.384C485.945 595.549 494.628 594.218 503.02 592.934C508.944 592.016 514.531 591.167 520.006 590.135C530.821 588.139 539.37 586.35 546.932 584.515C563.626 580.5 584.381 575.499 598.54 561.758C603.735 556.555 608.063 550.519 611.352 543.888C614.179 538.451 616.557 532.693 618.846 527.141C619.519 525.52 620.192 523.914 620.866 522.324C623.357 516.101 626.251 510.055 629.527 504.224C633.347 497.687 637.862 491.602 642.99 486.078C651.616 476.418 661.811 468.354 673.124 462.244V460.707C661.455 466.942 650.939 475.21 642.047 485.138C636.854 490.724 632.279 496.879 628.405 503.49C625.083 509.4 622.152 515.531 619.631 521.842C618.958 523.371 618.285 524.977 617.612 526.66C615.368 532.188 612.967 537.923 610.185 543.314C606.939 549.811 602.689 555.729 597.597 560.84C583.775 574.306 563.199 579.192 546.685 583.253C539.146 585.088 530.597 586.877 519.759 588.85C514.284 589.883 508.697 590.731 502.796 591.649C494.382 592.934 485.698 594.287 477.351 596.237C473.402 597.109 469.228 598.118 464.606 599.334C452.355 602.591 441.45 606.445 429.468 610.804C416.364 615.53 402.812 620.416 390.695 625.669C389.124 626.357 387.576 627.068 386.05 627.78C376.713 632.525 367.872 638.228 359.663 644.801C343.171 657.166 327.554 668.865 302.064 665.723C270.651 661.869 246.552 644.021 221.085 625.119L217.338 622.136C204.077 612.249 190.412 602.018 175.513 594.608C162.494 587.789 148.069 584.25 133.441 584.285C107.391 584.606 98.9316 597.545 89.9788 611.217C84.7507 619.177 79.3654 627.413 70.2107 633.813C68.1662 635.222 65.9858 636.414 63.7036 637.369C56.1889 640.134 48.3639 641.922 40.4128 642.691C28.7001 644.342 17.6381 645.902 9.47058 653.404C3.65906 658.749 -1.74854 664.736 -6.86444 670.517C-17.2982 682.217 -28.0909 694.306 -43.8201 702.381C-61.5687 711.557 -81.2693 712.612 -105.794 705.891C-113.865 703.382 -121.564 699.762 -128.681 695.132C-140.955 687.883 -152.555 681.047 -170.035 685.658C-175.754 687.284 -181.136 689.957 -185.921 693.549C-187.806 694.879 -189.646 696.256 -191.463 697.632C-202.682 706.028 -213.228 713.966 -229.743 707.703C-238.042 704.167 -245.898 699.631 -253.146 694.191L-254.38 693.342C-271.141 681.872 -286.489 672.054 -304.484 669.141C-312.02 668.153 -319.623 667.815 -327.214 668.131C-332.734 668.131 -338.433 668.292 -343.93 667.833C-347.718 667.54 -351.472 666.903 -355.15 665.929C-358.545 664.976 -361.793 663.54 -364.798 661.662L-364.865 663.383Z" fill="url(#paint7_linear_0_201)"/>
<path style="mix-blend-mode:screen" opacity="0.7" d="M-364.865 644.48C-358.672 653.243 -351.402 660.286 -340.834 662.832C-331.634 665.126 -322.03 664.392 -312.741 663.704C-305.666 662.963 -298.54 662.863 -291.447 663.406C-275.898 665.057 -261.762 672.926 -248.074 680.519C-237.641 686.392 -226.937 692.379 -215.359 695.751C-198.374 700.706 -188.927 692.494 -178.92 683.822C-172.637 678.386 -166.13 672.742 -157.514 670.54C-141.403 666.411 -130.947 674.073 -119.863 682.171C-113.131 687.172 -105.973 692.333 -97.0429 695.43C-72.5853 703.895 -53.9841 703.023 -36.7292 692.631C-22.7502 684.212 -13.1467 670.379 -3.8797 657.005C0.966003 649.727 6.20996 642.735 11.827 636.061C19.5233 627.344 31.0117 625.302 42.1185 623.306C51.7894 621.586 61.8192 619.796 69.5155 613.671C78.2664 606.789 82.8214 597.889 87.1968 589.355C94.7136 574.719 101.221 562.079 126.71 561.987H126.957C158.146 561.987 185.835 583.413 208.812 604.381L213.95 609.106C235.962 629.317 258.826 650.215 287.435 656.707C312.476 662.373 327.509 648.059 343.53 632.918C351.07 625.738 358.856 618.305 367.831 613.19C397.449 596.26 441.72 591.144 480.628 586.648C497.882 584.652 514.173 582.771 528.555 580.018C548.593 576.21 566.162 571.989 578.413 559.051C588.757 548.109 592.818 533.06 596.767 518.493C598.611 511.07 600.897 503.769 603.611 496.631C618.555 459.606 644 449.42 673.169 446.346V444.97C643.551 448.044 617.657 458.344 602.422 496.126C599.691 503.312 597.384 510.658 595.511 518.126C591.607 532.532 587.568 547.374 577.448 558.133C565.489 570.773 548.122 574.926 528.309 578.78C513.971 581.509 497.703 583.368 480.47 585.386C441.361 589.974 397.045 595.044 367.135 612.112C358.025 617.296 350.172 624.774 342.453 632.024C326.747 646.912 312.005 660.997 287.659 655.491C259.275 649.068 236.657 628.284 214.78 608.189L209.619 603.463C186.441 582.312 158.528 560.726 126.89 560.726H126.621C100.346 560.726 93.3672 574.49 85.9626 588.804C81.6321 597.223 77.1669 605.918 68.6404 612.708C61.1909 618.627 51.3406 620.393 41.7147 622.068C30.3834 624.086 18.6707 626.174 10.6827 635.258C4.99908 641.965 -0.297791 649.004 -5.18115 656.34C-14.3808 669.577 -23.8945 683.295 -37.6042 691.576C-54.2758 701.647 -72.5629 702.473 -96.639 694.191C-104.72 691.024 -112.285 686.623 -119.077 681.138C-130.431 672.834 -141.134 665.08 -157.828 669.278C-166.803 671.572 -173.378 677.307 -179.772 682.836C-189.488 691.278 -198.688 699.261 -215 694.49C-226.354 691.186 -237.08 685.313 -247.446 679.464C-261.245 671.802 -275.494 663.864 -291.29 662.167C-298.465 661.623 -305.673 661.723 -312.831 662.465C-322.03 663.153 -331.522 663.842 -340.519 661.639C-351.335 658.978 -358.582 651.477 -364.865 642.209V644.48Z" fill="url(#paint8_linear_0_201)"/>
<path style="mix-blend-mode:screen" opacity="0.7" d="M-364.865 624.362C-362.563 627.026 -360.041 629.482 -357.326 631.702C-352.188 635.996 -346.248 639.172 -339.869 641.039C-330.804 643.234 -321.518 644.327 -312.203 644.297C-305.327 644.359 -298.465 644.934 -291.672 646.017C-277.424 648.678 -264.948 656.524 -251.777 664.828C-241.164 671.526 -230.191 678.431 -218.12 682.377C-200.708 688.112 -190.251 679.9 -179.212 671.205C-173.109 666.411 -166.781 661.456 -159.017 658.932C-156.217 657.982 -153.331 657.321 -150.401 656.959C-140.394 655.835 -133.438 659.85 -125.36 664.507C-123.588 665.516 -121.77 666.571 -119.84 667.604C-114.163 670.805 -108.138 673.314 -101.89 675.082C-87.4171 678.959 -75.9737 679.968 -65.8541 678.271C-57.3889 676.8 -49.3671 673.363 -42.4063 668.223C-35.9562 663.363 -30.2796 657.513 -25.5777 650.88C-22.0998 646.292 -18.8462 641.085 -15.5478 636.13C-9.55679 626.954 -3.3414 617.365 4.24271 609.726C12.8365 601.054 24.8185 600.091 36.4414 599.15C45.5513 598.439 54.1676 597.728 61.1234 593.553C69.5377 588.483 74.2946 581.395 78.9168 574.536C86.86 562.676 94.3767 551.595 119.485 550.036C121.998 549.898 124.601 549.852 127.181 549.898C156.486 550.471 182.2 568.25 203.471 585.524C206.231 587.818 208.991 590.112 211.773 592.406L216.104 596.008C235.49 612.066 257.457 630.28 284.765 635.946C308.661 640.878 323.358 627.665 338.908 613.901C346.032 607.033 353.89 601.008 362.333 595.939C391.503 580.018 434.494 575.109 472.28 570.705C487.987 568.915 502.998 567.195 516.371 564.832C532.078 562.033 551.397 558.546 564.322 546.044C565.04 545.333 565.758 544.599 566.431 543.75C575.137 534.115 579.265 521.475 583.259 509.34C585.293 502.767 587.691 496.319 590.44 490.024C597.687 474.241 607.38 463.001 620.036 455.614C635.608 446.438 653.693 444.144 673.147 443.135V441.85C654.052 442.951 635.002 445.337 619.295 454.513C606.393 462.014 596.52 473.461 589.161 489.519C586.391 495.86 583.993 502.363 581.98 508.996C578.121 521.062 574.105 533.61 565.511 542.993C564.86 543.704 564.165 544.415 563.447 545.126C550.836 557.33 531.629 560.772 516.192 563.478C502.863 565.772 487.965 567.539 472.168 569.351C434.225 573.687 391.234 578.527 361.705 594.585C353.17 599.692 345.228 605.772 338.033 612.708C322.73 626.472 308.28 639.273 285.011 634.455C258.086 628.835 236.186 610.758 216.912 594.792L212.581 591.19C209.799 588.866 207.031 586.572 204.279 584.308C182.828 566.874 156.912 548.957 127.204 548.384C124.579 548.384 121.953 548.384 119.418 548.544C93.6587 550.036 85.6034 562.01 77.8174 573.595C73.3297 580.339 68.6178 587.359 60.4503 592.222C53.7188 596.26 45.3045 596.948 36.3293 597.659C24.4819 598.6 12.2306 599.586 3.32266 608.602C-4.37363 616.332 -10.6114 625.944 -16.6472 635.212C-19.8559 640.167 -23.1767 645.26 -26.6098 649.894C-31.2395 656.419 -36.8247 662.175 -43.1692 666.961C-49.968 671.991 -57.8059 675.358 -66.0786 676.803C-75.9962 678.454 -87.2602 677.445 -101.553 673.614C-107.699 671.918 -113.632 669.501 -119.235 666.411C-121.142 665.378 -122.937 664.346 -124.71 663.314C-132.989 658.565 -140.124 654.459 -150.558 655.629C-153.571 655.997 -156.54 656.673 -159.421 657.648C-167.319 660.24 -173.714 665.287 -179.907 670.15C-190.7 678.615 -200.865 686.598 -217.626 681.092C-229.473 677.193 -240.378 670.334 -250.924 663.681C-263.624 655.675 -276.773 647.416 -291.313 644.686C-298.174 643.599 -305.103 643.017 -312.046 642.943C-321.285 642.986 -330.497 641.908 -339.488 639.731C-345.702 637.889 -351.482 634.766 -356.473 630.555C-359.504 628.052 -362.298 625.264 -364.82 622.228L-364.865 624.362Z" fill="url(#paint9_linear_0_201)"/>
<path style="mix-blend-mode:screen" opacity="0.7" d="M-364.865 604.473C-362.308 606.693 -359.593 608.718 -356.743 610.529C-351.144 614.176 -345.112 617.075 -338.792 619.154C-330.089 621.732 -321.198 623.589 -312.203 624.706C-305.345 625.589 -298.542 626.875 -291.829 628.56C-278.815 632.161 -267.416 640.259 -255.322 648.862C-244.597 656.501 -233.467 664.392 -220.969 669.003C-202.884 675.656 -191.216 667.237 -178.875 658.336C-173.287 653.946 -167.208 650.25 -160.768 647.325C-158.095 646.205 -155.351 645.27 -152.555 644.526C-143.446 642.232 -137.656 644.526 -130.297 647.485C-128.547 648.196 -126.729 648.908 -124.777 649.619C-118.937 651.813 -112.934 653.524 -106.826 654.734C-95.6074 656.845 -82.5035 658.611 -70.5889 655.675C-62.2845 653.614 -54.5881 649.538 -48.1507 643.792C-42.1851 638.448 -37.0146 632.242 -32.803 625.371C-30.5592 621.861 -28.3154 618.26 -26.0716 614.429C-19.4523 603.303 -12.6086 591.787 -3.34167 583.459C6.32916 574.788 18.9843 575.132 31.2131 575.476C39.1337 575.683 46.6281 575.889 52.6864 573.526C61.0558 570.246 65.9473 564.924 71.1306 559.303C79.4327 550.265 88.0265 540.951 112.282 538.198C114.75 537.9 117.353 537.671 119.978 537.51C150.405 535.469 176.545 551.274 198.108 566.759C201.608 569.282 205.042 571.875 208.654 574.627L213.142 578.068C234.009 593.874 255.617 610.185 281.937 615.186C304.846 619.407 319.072 607.478 334.24 594.861C341.196 588.644 348.778 583.199 356.858 578.619C385.848 563.593 427.516 558.845 464.157 554.83C478.428 553.224 491.913 551.733 504.142 549.714C519.064 547.237 537.62 544.117 550.208 533.129C550.926 532.509 551.599 531.844 552.272 531.202C560.933 522.576 565.421 511.267 569.774 500.324C571.929 494.577 574.394 488.956 577.156 483.486C583.604 470.481 593.781 459.797 606.326 452.861C623.693 443.479 645.099 441.942 665.809 440.451L672.989 439.923V438.569L665.719 439.097C644.874 440.611 623.334 442.148 605.72 451.668C592.971 458.725 582.642 469.605 576.124 482.844C573.336 488.361 570.842 494.028 568.652 499.82C564.366 510.624 559.923 521.819 551.464 530.238C550.814 530.881 550.14 531.5 549.445 532.119C537.171 542.855 518.794 545.883 504.052 548.407C491.846 550.403 478.383 551.963 464.157 553.5C427.269 557.606 385.489 562.286 356.297 577.426C348.121 582.038 340.456 587.537 333.433 593.828C318.511 606.239 304.42 617.961 282.251 613.763C256.245 608.854 234.772 592.612 214.017 576.898L209.529 573.435C205.894 570.682 202.461 568.089 198.961 565.566C177.218 549.829 150.786 534 119.978 536.065C117.331 536.249 114.728 536.478 112.237 536.753C87.5553 539.552 78.3333 549.508 70.2555 558.294C65.1845 563.8 60.3827 569.007 52.305 572.173C46.4935 574.467 39.1337 574.26 31.3477 574.031C19.433 573.71 5.94769 573.343 -4.10461 582.358C-13.7755 590.823 -20.5069 602.431 -27.2383 613.649C-29.4821 617.457 -31.726 621.035 -33.9698 624.522C-38.0844 631.318 -43.1492 637.462 -49.0034 642.76C-55.2689 648.357 -62.7554 652.337 -70.8356 654.367C-82.5035 657.235 -95.5176 655.491 -106.535 653.427C-112.568 652.212 -118.496 650.501 -124.261 648.311C-126.213 647.623 -128.031 646.912 -129.758 646.224C-137.028 643.333 -143.221 640.833 -152.802 643.195C-155.659 643.941 -158.462 644.884 -161.194 646.017C-167.734 648.967 -173.904 652.711 -179.571 657.166C-191.62 665.86 -202.996 674.073 -220.453 667.673C-232.794 663.085 -243.834 655.262 -254.514 647.692C-266.698 639.02 -278.187 630.854 -291.425 627.206C-298.179 625.489 -305.027 624.186 -311.934 623.306C-320.926 622.199 -329.818 620.358 -338.523 617.801C-344.694 615.745 -350.583 612.893 -356.047 609.313C-359.156 607.332 -362.105 605.099 -364.865 602.637V604.473Z" fill="url(#paint10_linear_0_201)"/>
<path style="mix-blend-mode:screen" opacity="0.7" d="M-364.865 584.836C-362.352 586.258 -359.57 587.703 -356.137 589.424L-354.095 590.387C-348.827 592.959 -343.435 595.256 -337.939 597.269C-329.817 600.183 -321.694 602.362 -313.818 604.495C-305.942 606.629 -298.605 608.579 -291.941 611.079C-280.116 615.53 -269.75 623.834 -258.777 632.62C-247.805 641.406 -236.721 650.284 -223.662 655.56C-204.589 663.337 -190.79 653.977 -177.439 644.916C-172.602 641.519 -167.55 638.454 -162.316 635.74C-159.646 634.432 -156.886 633.102 -154.485 632.115C-145.869 628.605 -141.134 629.477 -133.954 630.831L-129.466 631.657C-128.21 631.84 -126.886 632.069 -125.495 632.322C-121.411 633.033 -116.766 633.836 -111.538 634.409C-99.3095 635.763 -86.4075 636.703 -75.0538 633.102C-66.9648 630.384 -59.6629 625.655 -53.8048 619.338C-48.3886 613.406 -43.7569 606.773 -40.0279 599.609C-38.7489 597.315 -37.4474 594.838 -36.146 592.36C-29.1902 579.261 -21.9875 565.727 -11.0377 556.986C-0.0878601 548.246 14.0481 550.311 26.4564 552.169C32.2659 553.359 38.2074 553.729 44.1152 553.27C53.0905 551.825 58.341 547.879 64.4891 543.314C72.9707 537.028 82.5518 529.894 104.878 526.109C107.436 525.673 110.016 525.26 112.574 524.87C144.391 520.053 172.035 534.574 192.566 547.81C196.762 550.494 200.913 553.339 205.311 556.367L206.343 557.078L212.2 561.139C232.641 575.339 253.777 589.997 279.245 594.356C300.875 598.049 314.854 587.313 329.641 576.004C336.407 570.438 343.698 565.574 351.406 561.483C380.037 547.443 420.381 543.131 455.968 539.139C468.825 537.74 480.941 536.409 492.116 534.712C506.319 532.555 523.978 529.871 536.251 520.305C536.969 519.755 537.643 519.204 538.293 518.631C546.91 511.037 551.756 501.058 556.513 491.401C558.757 486.606 561.248 481.674 564.097 477.04C570.983 465.438 580.993 456.112 592.93 450.177C608.637 442.423 627.53 440.519 645.795 438.707C654.904 437.789 664.194 436.826 673.147 435.174V433.798C664.171 435.473 654.815 436.436 645.682 437.354C627.283 439.212 608.256 441.139 592.347 448.984C580.159 454.981 569.927 464.453 562.886 476.26C560.093 480.951 557.532 485.782 555.212 490.735C550.343 500.691 545.743 510.12 537.261 517.529C536.61 518.103 535.96 518.63 535.287 519.158C523.282 528.541 505.78 531.179 491.734 533.312C480.515 535.01 468.488 536.317 455.654 537.74C419.954 541.639 379.498 546.067 350.643 560.198C342.863 564.327 335.504 569.237 328.676 574.857C314.114 586.052 300.359 596.604 279.312 593.025C254.271 588.667 234.189 574.719 212.85 559.946C210.943 558.615 209.036 557.285 207.106 555.977L206.074 555.243C201.586 552.215 197.503 549.37 193.284 546.663C172.574 533.358 144.638 518.699 112.507 523.586L104.788 524.824C82.0807 528.678 71.9161 536.294 63.7711 542.282C57.7577 546.732 52.5521 550.586 43.9358 551.985C38.1695 552.431 32.3706 552.06 26.7033 550.884C14.0258 548.98 -0.222565 546.847 -11.8006 555.977C-23.3788 565.107 -30.2448 578.55 -37.2679 591.764C-38.5693 594.241 -39.8484 596.65 -41.1498 598.99C-44.7664 606.053 -49.2945 612.589 -54.6127 618.42C-60.3209 624.57 -67.4392 629.166 -75.3231 631.794C-86.43 635.373 -99.1748 634.386 -111.224 633.056C-116.407 632.482 -121.03 631.679 -125.091 630.968C-126.504 630.739 -127.828 630.487 -129.085 630.303L-133.573 629.477C-140.708 628.147 -145.846 627.183 -154.844 630.854C-157.29 631.84 -160.05 633.148 -162.742 634.501C-168.047 637.267 -173.16 640.402 -178.045 643.884C-191.71 653.06 -204.612 661.892 -223.056 654.367C-235.913 649.137 -247.065 640.213 -257.813 631.588C-268.561 622.962 -279.331 614.36 -291.358 609.84C-298.089 607.317 -305.494 605.252 -313.347 603.211C-321.2 601.169 -329.301 598.921 -337.378 596.03C-343.324 593.874 -348.597 591.328 -353.399 589.148L-355.463 588.185C-359.143 586.419 -362.195 584.905 -364.73 583.368L-364.865 584.836Z" fill="url(#paint11_linear_0_201)"/>
<path style="mix-blend-mode:screen" opacity="0.7" d="M-364.865 565.474C-362.262 566.14 -359.323 566.897 -355.531 568.135C-351.739 569.374 -347.745 571.003 -343.437 572.723L-336.885 575.43C-332.532 577.151 -328.179 578.825 -323.87 580.477C-312.135 585.065 -301.051 589.217 -292.008 593.645C-281.373 598.852 -272.016 607.271 -262.121 616.172C-251.238 625.99 -239.974 636.153 -226.354 642.255C-205.734 651.431 -189.802 640.993 -174.387 630.785C-170.932 628.491 -167.364 626.197 -163.819 624.086C-162.091 623.1 -160.521 622.136 -159.062 621.219L-156.392 619.613C-147.237 614.153 -143.602 613.993 -134.829 613.626H-134.066C-130.678 613.488 -126.661 613.626 -122.017 613.855L-116.25 614.061H-115.891C-103.438 614.474 -90.5585 614.887 -79.5413 610.483C-71.593 607.208 -64.628 601.852 -59.347 594.952C-54.4418 588.525 -50.3273 581.507 -47.0958 574.054L-45.4578 570.498C-38.7263 556.046 -31.2095 539.667 -18.532 530.697C-5.85443 521.727 9.89722 526.315 22.5074 530.009C26.7726 531.435 31.1489 532.486 35.5889 533.152C46.3143 534.138 52.2156 531.339 61.1459 527.073C72.7846 521.27 85.0751 516.948 97.7426 514.203L105.416 512.414C131.22 506.358 156.463 511.45 187.293 528.931C191.781 531.523 196.269 534.299 201.654 537.648C204.773 539.598 207.847 541.571 210.921 543.544C231.878 557.009 251.691 569.695 276.507 573.48C296.993 576.6 310.636 567.011 325.086 556.872C331.648 551.973 338.624 547.682 345.931 544.048C374.562 530.904 414.031 526.728 448.832 523.035C459.827 521.865 470.216 520.741 479.954 519.433C494.18 517.552 510.291 515.258 522.205 507.206L524.202 505.784C532.818 499.2 538.091 490.575 543.207 482.202C545.608 478.256 548.099 474.195 550.926 470.342C558.232 460.195 568.043 452.215 579.355 447.218C593.267 441.047 609.647 438.914 625.488 436.872C640.006 434.991 654.994 433.064 668.121 427.994C669.857 427.323 671.558 426.557 673.214 425.7V424.163C671.415 425.155 669.557 426.028 667.649 426.778C654.747 431.779 639.826 433.66 625.398 435.587C609.445 437.652 592.975 439.785 578.906 446.025C567.353 451.081 557.33 459.198 549.871 469.539C547.022 473.416 544.509 477.522 542.085 481.49C536.812 490.024 531.831 498.283 523.394 504.706C522.789 505.165 522.138 505.646 521.465 506.082C509.819 513.997 493.866 516.176 479.797 518.103C470.059 519.433 459.603 520.535 448.698 521.682C413.784 525.398 374.226 529.596 345.482 542.832C338.1 546.489 331.056 550.819 324.435 555.771C310.21 565.75 296.769 575.178 276.799 572.15C252.117 568.411 232.551 555.771 211.728 542.328L202.461 536.432C197.099 533.083 192.634 530.307 188.056 527.692C156.912 510.028 131.377 504.889 105.237 511.037L97.563 512.827C84.7998 515.581 72.4177 519.934 60.6971 525.788C51.9463 529.94 46.1797 532.67 35.8132 531.729C31.4214 531.075 27.0906 530.047 22.8664 528.655C9.98688 524.87 -6.0564 520.168 -19.2725 529.504C-32.4885 538.841 -39.938 555.266 -46.6694 569.856L-48.3074 573.389C-51.4905 580.749 -55.5446 587.683 -60.3792 594.035C-65.4972 600.76 -72.2626 605.983 -79.9901 609.175C-90.7604 613.488 -103.505 613.075 -115.891 612.662H-116.25L-121.994 612.433C-126.684 612.226 -130.723 612.066 -134.178 612.226H-134.941C-143.692 612.616 -147.686 612.777 -157.133 618.397L-159.803 620.026C-161.261 620.921 -162.832 621.884 -164.537 622.87C-168.105 624.958 -171.695 627.321 -175.173 629.615C-190.296 639.594 -205.913 649.917 -225.883 640.947C-239.346 634.914 -250.565 624.889 -261.313 615.094C-271.298 606.124 -280.699 597.636 -291.515 592.36C-300.49 587.91 -311.709 583.643 -323.489 579.147C-327.775 577.495 -332.128 575.82 -336.481 574.1L-342.92 571.485C-347.251 569.695 -351.335 567.998 -355.104 566.897C-358.874 565.795 -362.15 564.832 -364.842 564.144L-364.865 565.474Z" fill="url(#paint12_linear_0_201)"/>
<path style="mix-blend-mode:screen" opacity="0.7" d="M-364.865 546.457C-361.547 546.122 -358.2 546.276 -354.925 546.916C-348.408 548.434 -342.067 550.656 -336.009 553.545C-320.953 560.076 -306.343 567.632 -292.278 576.164C-282.764 582.037 -274.439 590.479 -265.621 599.426C-254.716 610.46 -243.43 621.884 -229.226 628.881C-205.935 640.351 -186.145 626.587 -168.643 614.658L-165.479 612.502C-162.832 610.689 -160.543 608.877 -158.479 607.179L-156.818 605.826C-149.459 599.793 -146.99 597.751 -138.868 595.572C-133.042 594.349 -127.112 593.719 -121.164 593.691L-117.641 593.553C-106.086 593.117 -94.171 592.658 -84.2085 587.887C-76.4296 583.99 -69.8475 577.983 -65.1809 570.521C-60.8287 563.579 -57.2322 556.171 -54.4555 548.43C-48.3972 532.853 -40.858 513.469 -26.2732 504.339C-11.6884 495.209 6.03778 503.284 18.8051 509.294C21.8118 510.693 24.6615 512.047 27.0399 512.941C41.5125 518.355 48.5582 515.947 65.5663 510.166C72.0284 507.872 80.0389 505.234 90.4727 502.251C93.1652 501.471 95.6783 500.714 98.1689 499.957C124.938 491.401 150.764 494.543 181.908 510.097C186.553 512.391 191.242 515.029 196.852 518.218C201.07 520.649 205.289 523.15 209.372 525.581C229.993 537.854 249.469 549.462 273.77 552.697C293.112 555.266 306.44 546.847 320.553 537.923C326.889 533.648 333.552 529.904 340.479 526.728C369.469 514.364 408.466 510.395 442.886 506.908C451.637 506.013 459.894 505.188 467.815 504.247C481.278 502.618 496.648 500.783 508.204 494.199C508.877 493.832 509.528 493.442 510.156 493.029C518.817 487.501 524.539 480.183 530.081 473.117C532.527 470.02 535.04 466.809 537.8 463.735C545.527 455.113 555.137 448.479 565.847 444.373C577.829 439.671 591.606 437.491 604.957 435.427C620.26 433.133 636.101 430.54 649.273 424.209C659.37 419.346 666.909 411.363 673.214 401.59V399.158C666.819 409.527 659.123 417.969 648.712 422.993C635.72 429.256 619.968 431.71 604.755 434.096C591.292 436.184 577.47 438.363 565.376 443.112C554.476 447.288 544.697 454.041 536.835 462.817C534.053 465.914 531.517 469.149 529.049 472.269C523.327 479.586 517.83 486.468 509.46 491.882C508.832 492.272 508.204 492.662 507.553 493.029C496.334 499.476 481.772 501.219 467.725 502.894C459.827 503.857 451.57 504.683 442.819 505.578C408.309 509.064 369.222 513.033 340.03 525.49C333.015 528.669 326.262 532.42 319.835 536.707C305.946 545.493 292.91 553.798 273.927 551.297C249.873 548.086 230.509 536.57 210.001 524.343C205.917 521.911 201.699 519.41 197.48 516.979C191.848 513.767 187.136 511.152 182.469 508.812C151.056 493.098 124.87 489.932 97.7426 498.604C95.2744 499.384 92.7838 500.141 90.1136 500.898C79.635 503.903 71.6021 506.633 65.14 508.835C47.9299 514.685 41.5125 516.864 27.4662 511.634C25.2224 510.739 22.3055 509.34 19.3212 508.009C6.30707 501.884 -11.5313 493.488 -26.9912 503.146C-41.9575 512.506 -49.5864 532.119 -55.712 547.879C-58.4401 555.533 -61.9843 562.857 -66.2804 569.718C-70.8268 576.975 -77.2283 582.821 -84.7919 586.625C-94.5076 591.213 -106.31 591.718 -117.709 592.154L-121.231 592.291C-127.262 592.329 -133.275 592.974 -139.182 594.218C-147.596 596.512 -150.401 598.806 -157.649 604.725L-159.309 606.078C-161.351 607.753 -163.595 609.542 -166.22 611.332L-169.384 613.488C-186.549 625.325 -206.025 638.722 -228.62 627.619C-242.644 620.783 -253.863 609.313 -264.679 598.462C-273.654 589.47 -281.956 580.959 -291.604 575.017C-305.715 566.441 -320.378 558.854 -335.493 552.307C-341.65 549.39 -348.087 547.137 -354.701 545.585C-358.051 544.951 -361.471 544.789 -364.865 545.103V546.457Z" fill="url(#paint13_linear_0_201)"/>
<path style="mix-blend-mode:screen" opacity="0.7" d="M-364.866 527.807C-361.59 526.176 -357.955 525.448 -354.319 525.696C-347.768 526.04 -340.587 529.068 -335.045 531.684C-319.959 539.152 -305.672 548.201 -292.413 558.684C-284.066 565.084 -276.706 573.457 -268.965 582.312C-258.082 594.723 -246.818 607.547 -231.964 615.507C-207.148 628.789 -183.049 613.511 -167.095 600.871C-164.729 599.009 -162.522 596.945 -160.499 594.7C-157.918 591.878 -156.011 589.493 -154.463 587.382C-151.73 583.182 -147.981 579.776 -143.58 577.495C-137.967 575.146 -132.019 573.744 -125.966 573.343L-120.088 572.7C-109.183 571.576 -97.9187 570.406 -88.7863 565.268C-81.1288 560.766 -74.898 554.109 -70.8358 546.09C-67.0136 538.674 -63.9387 530.88 -61.6586 522.829C-55.7349 504.224 -48.1957 485.941 -33.8578 477.981C-16.1989 468.254 3.7037 482.248 15.5062 490.621L18.4905 492.708C37.8546 505.991 45.6631 503.284 83.1797 490.414C85.7376 489.52 88.3181 488.556 90.8535 487.547C118.61 476.26 145.042 477.453 176.522 491.217C181.997 493.511 187.45 496.379 192.05 498.764C197.323 501.494 202.551 504.408 207.599 507.206C227.928 518.493 247.135 529.16 271.032 531.867C289.14 533.932 302.311 526.728 316.065 518.929C322.147 515.345 328.459 512.188 334.958 509.477C365.093 497.732 404.517 494.016 439.206 490.712C444.815 490.185 450.313 489.68 455.608 489.13H456.259C469.475 487.73 483.095 486.354 494.067 481.307L495.975 480.366C503.785 476.082 510.906 470.596 517.089 464.102C519.467 461.808 521.913 459.514 524.538 457.22C532.67 450.209 542.07 444.901 552.205 441.598C562.499 438.454 572.996 436.047 583.618 434.394C600.02 431.458 616.961 428.407 630.267 420.493C648.217 409.871 655.734 388.652 663.722 366.193C666.594 358.141 669.534 349.906 673.034 341.992V338.757C668.995 347.543 665.697 356.765 662.488 365.735C654.567 387.964 647.096 408.931 629.616 419.346C616.512 427.122 599.661 430.15 583.394 433.11C572.673 434.766 562.078 437.189 551.688 440.359C541.391 443.719 531.839 449.112 523.573 456.233C520.926 458.527 518.458 460.821 516.079 463.115C509.982 469.525 502.959 474.94 495.257 479.174L493.417 480.068C482.624 485.023 469.116 486.4 456.057 487.73H455.406L439.004 489.313C404.202 492.594 364.734 496.333 334.42 508.17C327.867 510.891 321.502 514.064 315.37 517.667C301.75 525.283 288.893 532.463 271.054 530.445C247.427 527.784 228.422 517.185 208.115 505.968C203.044 503.146 197.816 500.233 192.521 497.48C187.921 495.186 182.446 492.318 176.814 489.91C144.997 475.985 118.273 474.815 90.2029 486.101C87.6898 487.111 85.1319 488.074 82.5739 488.946C45.5733 501.77 37.877 504.431 19.029 491.515L16.0672 489.451C3.92813 480.894 -16.3784 466.511 -34.7553 476.742C-49.5869 484.909 -57.1934 503.49 -63.1844 522.324C-65.4118 530.26 -68.4189 537.946 -72.1596 545.264C-76.1044 553.058 -82.1457 559.537 -89.5717 563.937C-98.5469 568.938 -109.609 570.085 -120.379 571.209C-122.354 571.416 -124.328 571.599 -126.258 571.829C-132.465 572.257 -138.564 573.706 -144.321 576.119C-148.914 578.479 -152.826 582.021 -155.674 586.396C-157.268 588.483 -159.063 590.846 -161.621 593.622C-163.609 595.803 -165.762 597.82 -168.06 599.655C-183.767 612.066 -207.372 627.183 -231.515 614.13C-246.145 606.308 -257.319 593.484 -268.134 581.257C-275.943 572.333 -283.325 563.937 -291.784 557.445C-305.116 546.905 -319.478 537.803 -334.641 530.284C-340.273 527.646 -347.611 524.549 -354.387 524.182C-358.032 523.932 -361.681 524.618 -365 526.178L-364.866 527.807Z" fill="url(#paint14_linear_0_201)"/>
<path style="mix-blend-mode:screen" opacity="0.7" d="M-364.865 509.592C-361.834 506.583 -357.861 504.763 -353.646 504.453C-348.171 504.109 -341.933 505.807 -334.013 509.799C-318.665 517.552 -303.788 530.651 -292.547 541.204C-285.236 548.517 -278.485 556.393 -272.353 564.763C-261.515 578.688 -250.318 593.071 -234.769 602.11C-211.388 615.713 -185.405 604.404 -168.711 589.263C-166.403 587.159 -164.333 584.797 -162.54 582.221C-160.252 578.844 -158.305 575.24 -156.729 571.462C-155.09 566.735 -152.21 562.56 -148.404 559.395C-143.737 555.793 -136.938 554.119 -130.88 552.972C-128.367 552.49 -125.787 552.077 -123.161 551.641C-112.75 549.944 -102.002 548.177 -93.4754 542.672C-86.4299 538.084 -81.0896 531.454 -76.6693 521.659C-73.4404 513.852 -70.8951 505.769 -69.0629 497.503V497.204C-65.0913 481.399 -57.8437 459.468 -41.6658 451.622C-27.1932 444.74 -10.2524 451.462 9.94193 472.452C28.8573 492.02 40.0764 493.006 75.9774 478.348C78.4905 477.315 81.071 476.054 83.6289 474.93C112.305 461.165 139.276 460.248 171.138 472.337C175.738 474.081 180.853 476.306 187.226 479.219C193.598 482.133 199.679 485.39 205.648 488.395C225.842 498.833 244.735 508.674 268.295 510.877C285.46 512.46 298.25 506.289 311.78 499.774C317.556 496.92 323.481 494.392 329.529 492.203C362.692 480.55 406.312 477.017 441.36 474.172L445.512 473.828C457.381 472.865 469.677 471.878 479.977 468.323L481.839 467.658C489.978 464.374 497.7 460.099 504.838 454.926C506.947 453.526 509.079 452.104 511.3 450.682C519.786 445.357 528.996 441.345 538.63 438.776C545.877 436.78 553.843 435.22 561.517 433.729C579.467 430.242 598.046 426.618 611.554 416.753C626.722 405.65 632.152 386.495 637.919 366.285C641.554 353.439 645.346 340.133 651.808 328.273C654.829 322.925 658.187 317.783 661.86 312.88L663.005 311.298C666.893 306.038 670.289 300.416 673.147 294.505V291.156C670.187 298.015 666.42 304.478 661.928 310.403L660.806 311.986C657.102 316.934 653.714 322.122 650.664 327.516C644.112 339.537 640.32 352.888 636.64 365.826C630.963 385.853 625.578 404.824 610.791 415.606C597.53 425.31 579.086 428.889 561.27 432.376C553.551 433.867 545.563 435.427 538.293 437.445C528.532 440.037 519.2 444.096 510.605 449.489C508.361 450.911 506.117 452.356 504.12 453.756C497.056 458.87 489.417 463.098 481.368 466.35C480.784 466.579 480.179 466.809 479.55 467.015C469.408 470.502 457.112 471.603 445.399 472.429L441.248 472.773C406.133 475.641 362.423 479.173 329.057 490.896C322.936 493.142 316.943 495.738 311.107 498.673C297.644 505.142 285.101 511.221 268.295 509.661C244.982 507.505 226.111 497.709 206.119 487.34C200.15 484.22 193.98 481.032 187.675 478.164C181.37 475.297 176.119 472.911 171.474 471.144C139.276 458.917 111.968 459.674 82.9557 473.783C80.4203 474.998 77.8847 476.077 75.3716 477.155C38.057 492.318 28.6329 489.795 10.9068 471.488C-9.78122 450.039 -27.2381 443.157 -42.1819 450.407C-58.831 458.504 -66.1458 480.848 -70.2071 496.906V497.181C-72.02 505.367 -74.5354 513.374 -77.724 521.108C-82.0321 530.651 -87.2152 537.166 -94.0364 541.548C-102.339 546.916 -112.974 548.659 -123.206 550.334C-125.831 550.77 -128.412 551.205 -130.925 551.664C-137.14 552.857 -144.141 554.578 -149.032 558.363C-153.046 561.64 -156.091 565.992 -157.828 570.934C-159.362 574.634 -161.264 578.162 -163.505 581.463C-165.232 583.982 -167.234 586.291 -169.474 588.346C-185.741 603.165 -211.209 614.268 -234.006 601.031C-249.376 592.039 -260.595 577.747 -271.32 563.937C-277.506 555.501 -284.325 547.57 -291.717 540.217C-302.936 529.596 -317.992 516.405 -333.497 508.606C-341.642 504.476 -348.104 502.733 -353.803 503.123C-357.903 503.374 -361.8 505.031 -364.865 507.826V509.592Z" fill="url(#paint15_linear_0_201)"/>
<path style="mix-blend-mode:screen" opacity="0.7" d="M-364.865 491.836C-361.858 487.799 -358.739 484.22 -353.107 483.211C-347.475 482.202 -340.856 483.739 -333.115 487.937C-317.879 496.149 -303.541 511.381 -292.726 523.723C-286.607 531.022 -280.913 538.682 -275.673 546.663C-265.082 562.309 -253.863 578.481 -237.528 588.667C-214.35 603.234 -186.167 594.104 -170.214 577.564C-167.952 575.222 -166.026 572.565 -164.492 569.672C-162.312 565.405 -160.719 560.851 -159.758 556.138C-158.389 550.54 -157.2 545.7 -153.026 541.249C-149.436 537.418 -144.208 534.826 -135.547 532.555C-132.585 531.775 -129.578 531.11 -126.392 530.399C-116.34 528.105 -105.951 525.811 -97.9181 520.007C-91.0296 514.96 -86.0483 507.711 -82.2114 497.067C-79.6797 489.28 -77.7443 481.303 -76.4225 473.209L-76.0858 471.466C-71.2617 446.231 -62.1742 430.655 -49.16 425.149C-26.1833 415.492 -4.50812 443.295 1.59503 452.058C18.5358 476.375 31.6173 483.716 68.7076 466.258C71.2431 465.065 73.801 463.735 76.359 462.29C106.336 445.337 133.06 442.676 165.73 453.32C170.667 454.926 176.119 457.036 182.424 459.72C189.649 462.84 196.695 466.258 203.494 469.585C223.419 479.288 242.222 488.441 265.558 490.093C281.735 491.263 294.929 485.941 307.719 480.917C312.969 478.806 318.422 476.604 324.054 474.884C359.057 464.056 402.049 460.523 431.353 458.826L435.706 458.573C445.832 458.286 455.921 457.204 465.885 455.339C466.491 455.339 467.097 455.063 467.703 454.926C477.047 452.511 486.181 449.312 495.01 445.36L498.062 444.098C506.779 440.562 515.791 437.836 524.988 435.954C528.914 435.105 532.886 434.348 537.082 433.66C557.545 429.738 578.704 425.7 592.661 413.014C605.496 401.406 609.108 383.765 612.855 365.092C615.727 351.076 618.689 336.578 625.802 323.8C629.148 318.109 632.986 312.734 637.268 307.742C642.096 302.086 646.592 296.141 650.731 289.94C654.198 284.797 656.23 278.786 656.61 272.552C656.802 265.729 656.26 258.905 654.994 252.204C654.77 250.552 654.523 248.855 654.276 247.088C652.818 236.444 651.337 216.234 657.844 200.657C660.052 195.172 663.478 190.287 667.851 186.389C669.534 184.508 671.307 182.649 673.079 180.768V178.818C670.97 181.021 668.928 183.223 666.954 185.425C662.438 189.437 658.904 194.472 656.632 200.13C649.901 216.004 651.494 236.49 652.975 247.272C653.222 249.038 653.468 250.736 653.693 252.41C654.938 259.006 655.472 265.722 655.286 272.437C654.925 278.448 652.97 284.245 649.631 289.206C645.537 295.349 641.102 301.246 636.348 306.87C632.014 311.902 628.131 317.322 624.748 323.066C617.522 335.912 614.538 350.594 611.644 364.633C607.874 382.986 604.306 400.512 591.786 411.821C578.099 424.209 557.119 428.223 536.857 432.1C532.639 432.926 528.645 433.683 524.718 434.394C515.417 436.295 506.3 439.044 497.478 442.607L494.449 443.892C485.683 447.828 476.608 451.005 467.321 453.389L465.549 453.802C455.649 455.631 445.628 456.697 435.571 456.99L431.218 457.243C401.847 458.963 358.743 462.519 323.515 473.301C317.838 475.067 312.296 477.269 307.068 479.38C293.852 484.702 281.354 489.703 265.49 488.556C242.401 486.904 223.71 477.797 203.92 468.162C197.188 464.836 190.031 461.28 182.783 458.275C176.433 455.568 170.958 453.458 165.977 451.829C132.926 441.047 105.888 443.754 75.5737 461.005C73.0382 462.45 70.5026 463.758 68.012 464.928C32.268 481.766 19.7925 475.962 2.51508 451.164C-3.72272 442.194 -25.9365 413.725 -49.8332 423.773C-63.2961 429.462 -72.7201 445.383 -77.6116 471.099L-77.9482 472.842C-79.2634 480.865 -81.1839 488.773 -83.6924 496.493C-87.4396 506.793 -92.2637 513.836 -98.9279 518.722C-106.736 524.434 -117.013 526.705 -126.931 528.908C-129.982 529.573 -133.146 530.261 -136.108 531.064C-145.083 533.358 -150.446 536.111 -154.216 540.24C-158.703 544.966 -159.96 550.196 -161.306 555.748C-162.241 560.347 -163.788 564.793 -165.906 568.961C-167.398 571.738 -169.256 574.292 -171.426 576.554C-186.526 592.314 -214.641 601.49 -237.012 587.451C-253.1 577.334 -264.14 561.276 -274.798 545.769C-280.019 537.791 -285.691 530.131 -291.784 522.829C-302.644 510.395 -317.072 495.071 -332.487 486.744C-340.52 482.408 -347.341 480.802 -353.332 481.88C-358.015 482.852 -362.148 485.639 -364.865 489.657V491.836Z" fill="url(#paint16_linear_0_201)"/>
<path style="mix-blend-mode:screen" opacity="0.7" d="M-352.861 460.684C-358.762 462.358 -362.061 466.946 -364.865 471.879V474.585C-361.791 468.942 -358.717 463.735 -352.524 461.968C-346.331 460.202 -339.869 461.601 -332.15 466.075C-320.393 472.819 -307.199 486.331 -292.929 506.22C-288.059 513.102 -283.706 520.236 -279.084 527.898C-268.493 545.493 -257.521 563.708 -240.311 575.361C-217.245 590.984 -186.325 583.138 -171.942 566.002C-169.736 563.393 -167.949 560.443 -166.647 557.262C-164.736 552.113 -163.594 546.7 -163.258 541.204C-162.54 534.712 -161.89 528.587 -157.918 523.127C-154.508 518.539 -149.122 515.052 -140.461 512.161C-137.163 511.06 -133.595 510.074 -130.162 509.11C-120.357 506.403 -110.237 503.605 -102.608 497.365C-95.8766 491.813 -91.187 483.968 -88.0232 472.681C-86.0956 464.969 -84.701 457.127 -83.8497 449.214L-83.4009 445.887C-81.0001 427.971 -74.4257 405.237 -56.7893 398.837C-36.595 391.519 -17.2982 412.051 -6.81952 431.871C8.88721 461.693 24.5939 474.104 61.4598 454.329C63.9729 452.999 66.5308 451.485 69.0887 449.741C99.9188 429.852 127.204 425.264 160.345 434.44C165.618 435.885 171.272 437.79 177.622 440.244C185.745 443.41 193.598 447.011 201.182 450.498C220.95 459.674 239.641 468.162 262.82 469.263C278.19 469.997 291.406 465.822 304.196 461.762C308.863 460.294 313.687 458.757 318.579 457.472C351.579 449.271 385.333 444.65 419.281 443.685L428.795 443.433C436.514 443.249 444.502 443.066 451.861 442.4L453.634 442.217C464.115 441.234 474.54 439.703 484.868 437.629C493.35 435.931 502.347 434.578 511.569 433.247C535.466 429.783 559.991 425.104 573.992 409.298C584.785 397.117 586.804 380.531 588.914 363.005C590.731 348.117 592.594 332.701 600.133 319.602C603.463 314.141 607.418 309.105 611.913 304.599C614.538 301.8 617.029 299.254 619.34 296.868C622.189 293.932 624.882 291.179 627.283 288.541C632.059 283.708 635.649 277.789 637.762 271.267C640.005 263.628 639.893 254.865 639.444 245.024C638.726 229.31 638.749 212.907 643.618 199.671C645.583 194.209 648.571 189.191 652.414 184.898C658.82 176.776 665.762 169.111 673.191 161.957V160.076C665.392 167.539 658.112 175.549 651.404 184.049C647.482 188.472 644.435 193.629 642.429 199.235C637.47 212.701 637.447 229.241 638.188 245.115C638.614 254.819 638.794 263.467 636.55 270.877C634.494 277.209 631.003 282.955 626.363 287.646C623.985 290.262 621.292 293.014 618.442 295.951C616.198 298.245 613.641 300.883 610.993 303.704C606.442 308.293 602.435 313.413 599.056 318.96C591.315 332.288 589.43 347.841 587.612 362.867C585.503 380.187 583.529 396.543 573.005 408.403C559.295 423.888 535.04 428.522 511.39 431.94C502.145 433.27 493.125 434.624 484.621 436.321C474.329 438.384 463.942 439.915 453.499 440.909L451.749 441.07C444.434 441.735 436.469 441.942 428.75 442.102C425.586 442.102 422.4 442.263 419.236 442.378C385.192 443.383 351.346 448.066 318.265 456.348C313.351 457.656 308.504 459.17 303.837 460.661C290.553 464.859 278.055 468.827 262.91 468.116C239.978 467.015 221.399 458.481 201.743 449.443C194.137 445.956 186.283 442.355 178.093 439.166C171.721 436.711 166.022 434.784 160.726 433.316C127.181 424.14 99.5823 428.728 68.4156 448.801C65.8801 450.43 63.3447 451.944 60.8765 453.251C24.9754 472.521 9.73987 460.408 -5.63031 431.343C-16.3557 411.064 -36.3033 390.051 -57.238 397.667C-75.5027 404.297 -82.2566 427.489 -84.7023 445.841L-85.1511 449.191C-86.0043 457.034 -87.3914 464.806 -89.3022 472.452C-92.3089 483.394 -96.7966 491.034 -103.528 496.402C-110.933 502.481 -120.918 505.233 -130.588 507.872C-134.044 508.812 -137.612 509.799 -140.955 510.923C-146.968 512.941 -154.418 516.061 -159.062 522.393C-163.236 528.151 -163.932 534.459 -164.65 541.135C-164.991 546.472 -166.103 551.729 -167.948 556.734C-169.216 559.77 -170.926 562.593 -173.019 565.107C-187.043 581.808 -217.177 589.447 -239.66 574.283C-256.646 562.813 -267.529 544.713 -278.052 527.233C-282.54 519.892 -287.027 512.276 -291.941 505.486C-306.257 485.436 -319.585 471.672 -331.5 464.79C-339.533 460.202 -346.533 458.871 -352.861 460.684Z" fill="url(#paint17_linear_0_201)"/>
<path style="mix-blend-mode:screen" opacity="0.7" d="M-330.49 443.043C-338.478 438.157 -345.86 436.941 -352.39 439.464C-358.919 441.988 -362.06 448.135 -364.865 454.536V457.908L-364.663 457.426C-361.567 450.177 -358.627 443.341 -351.941 440.772C-345.703 438.363 -338.904 439.51 -331.163 444.236C-314.424 454.467 -298.942 478.806 -293.018 488.785C-289.338 495.048 -285.815 501.77 -282.405 508.262C-271.994 528.174 -261.246 548.751 -243.026 562.033C-221.687 577.587 -187.895 573.893 -173.468 554.44C-171.335 551.546 -169.696 548.304 -168.621 544.851C-167.057 538.926 -166.376 532.793 -166.602 526.66C-166.602 518.975 -166.422 511.703 -162.652 505.188C-159.399 499.613 -154.014 495.507 -145.196 491.928C-141.628 490.483 -137.768 489.221 -133.976 487.983C-124.35 484.817 -114.41 481.536 -107.051 474.884C-100.319 468.782 -96.0784 460.363 -93.5878 448.411C-92.21 440.83 -91.3032 433.168 -90.8727 425.471C-90.7605 423.819 -90.6259 422.144 -90.4913 420.493C-89.504 408.243 -84.994 379.2 -64.261 372.685C-42.698 365.941 -24.2987 389.569 -15.0542 411.844C-5.80969 434.119 4.17529 446.576 16.3592 450.682C26.95 454.261 39.4032 451.599 54.5041 442.584C56.9498 441.116 59.5078 439.418 62.1331 437.514C93.6586 414.574 121.527 408.059 155.274 415.836C161.346 417.245 167.338 418.991 173.224 421.066C182.2 424.232 190.816 427.948 199.118 431.573C218.819 440.129 237.442 448.227 260.509 448.732C275.722 449.076 289.678 445.887 303.141 442.813C306.597 442.01 310.097 441.208 313.62 440.519C337.18 435.541 372.543 428.889 407.546 428.705C417.733 428.705 428.279 429.095 438.174 429.577H439.902L450.291 430.15C457.673 430.563 464.651 430.976 472.011 431.022C479.887 431.022 489.064 431.022 498.398 430.426C517.471 429.095 542.871 423.681 555.571 405.513C564.546 392.712 565.107 376.149 565.69 360.137C566.229 344.607 566.812 328.549 574.665 315.266C577.977 310.007 582.038 305.283 586.715 301.25C590.843 297.488 594.972 294.207 598.944 291.041C600.716 289.642 602.444 288.266 604.104 286.889C610.23 282.287 615.357 276.437 619.16 269.707C623.468 261.334 624.456 251.791 624.882 242.73C624.994 240.206 625.084 237.637 625.174 235.022C625.578 222.634 626.026 209.788 629.661 198.478C631.41 193.016 633.96 187.857 637.223 183.177C646.58 168.725 659.93 155.993 673.573 143.812V142.022C659.571 154.502 645.772 167.532 636.146 182.42C632.652 187.136 629.889 192.374 627.956 197.95C624.254 209.421 623.827 222.405 623.468 234.884C623.468 237.499 623.289 240.069 623.177 242.569C622.773 251.493 621.808 260.921 617.612 268.973C613.897 275.546 608.884 281.257 602.893 285.742C601.232 287.119 599.505 288.472 597.754 289.894C593.76 293.06 589.632 296.364 585.458 300.149C580.689 304.272 576.546 309.096 573.162 314.463C565.017 328.044 564.456 344.286 563.895 360C563.312 376.539 562.751 392.116 554.045 404.641C541.637 422.374 516.618 427.581 497.949 429.003C488.66 429.646 479.505 429.646 471.674 429.6C464.337 429.6 457.381 429.141 449.999 428.705C446.611 428.522 443.155 428.315 439.588 428.155H437.882C427.965 427.696 417.441 427.237 407.187 427.283C372.071 427.466 336.597 434.165 312.947 439.12C309.424 439.877 305.924 440.68 302.446 441.414C288.467 444.603 275.273 447.631 260.217 447.287C237.397 446.782 218.908 438.753 199.32 430.242C190.995 426.618 182.379 422.878 173.337 419.713C167.453 417.617 161.46 415.856 155.386 414.436C121.213 406.568 93.0528 413.106 61.1458 436.321C58.5429 438.202 56.0074 439.9 53.629 441.322C38.9545 450.154 26.8603 452.792 16.6285 449.305C4.91577 445.337 -4.79993 433.247 -13.9099 411.225C-23.3563 388.445 -42.3166 364.312 -64.7098 371.286C-86.2056 377.939 -90.8727 407.784 -91.8824 420.286C-92.0171 421.938 -92.1293 423.613 -92.2639 425.287C-92.6925 432.938 -93.5917 440.554 -94.9565 448.09C-97.3574 459.766 -101.508 467.956 -107.993 473.874C-115.128 480.321 -124.934 483.555 -134.425 486.675C-138.195 487.914 -142.077 489.198 -145.644 490.644C-151.77 493.144 -159.376 496.975 -163.729 504.408C-167.701 511.29 -167.791 518.676 -167.88 526.568C-167.662 532.56 -168.32 538.553 -169.833 544.346C-170.856 547.654 -172.427 550.758 -174.477 553.522C-188.456 572.471 -221.351 576.004 -242.173 560.84C-260.124 547.764 -270.827 527.302 -281.171 507.55C-284.581 501.012 -288.104 494.291 -291.806 488.005C-299.301 475.526 -314.11 453.045 -330.49 443.043Z" fill="url(#paint18_linear_0_201)"/>
<path style="mix-blend-mode:screen" opacity="0.7" d="M-292.009 470.64C-294.926 464.584 -318.935 416.34 -343.616 416.34C-346.473 416.343 -349.293 416.993 -351.874 418.245C-358.942 421.617 -362.016 429.715 -364.821 437.767V441.85C-364.551 441.024 -364.26 440.221 -363.968 439.418C-361.006 430.907 -358.224 422.855 -351.313 419.552C-329.929 409.344 -304.709 447.287 -293.153 471.328C-290.618 476.65 -288.127 482.202 -285.726 487.57C-275.606 510.189 -265.128 533.587 -245.809 548.705C-238.321 554.187 -229.67 557.779 -220.563 559.186C-211.457 560.594 -202.154 559.777 -193.415 556.803C-181.389 552.398 -173.333 543.727 -170.753 532.44C-169.574 525.765 -169.348 518.95 -170.08 512.207C-170.618 503.261 -171.157 494.819 -167.522 487.157C-162.114 475.801 -150.402 471.351 -137.993 466.648C-128.547 463.07 -118.786 459.353 -111.785 452.334C-98.9059 439.464 -98.4572 419.85 -98.0085 400.879C-98.0085 398.86 -98.0085 396.841 -97.8513 394.869C-97.5372 384.981 -94.7325 352.223 -72.0026 346.281C-49.2728 340.34 -31.6139 366.927 -23.5586 391.611C-14.4262 419.139 -2.96036 434.784 11.4674 439.166C23.7635 442.905 38.2585 438.134 54.571 424.989C92.5364 394.433 124.331 387.872 168.041 401.59C177.846 404.687 187.113 408.472 196.066 412.211C215.565 420.286 233.987 427.902 256.649 427.902H257.322C280.142 427.742 302.199 424.117 323.56 420.584C355.983 415.216 389.505 409.688 425.205 416.845C430.994 417.992 436.85 419.414 442.527 420.791C455.99 424.071 470.103 427.466 484.262 427.673C502.459 427.833 525.772 421.181 536.206 401.796C543.431 388.331 542.601 372.295 541.816 356.788C540.985 340.73 540.133 324.236 548.368 310.908C554.471 301.089 564.613 294.85 574.418 288.747C583.708 283.012 593.289 277.094 599.706 268.101C608.681 255.668 609.826 239.931 610.925 224.722C611.351 215.441 612.644 206.223 614.785 197.193C622.593 168.587 646.804 149.019 670.184 130.346L673.034 128.052V126.331L669.377 129.291C645.906 148.216 621.561 167.784 613.64 196.803C611.474 205.9 610.159 215.187 609.714 224.538C608.479 240.275 607.335 255.117 598.674 267.23C592.414 275.993 582.967 281.842 573.768 287.509C563.828 293.657 553.573 300.011 547.268 310.105C538.831 323.708 539.684 340.477 540.537 356.696C541.322 372.02 542.13 387.849 535.084 400.971C525.099 419.575 502.863 426.205 485.092 426.205H484.352C470.328 426.044 456.394 422.672 442.886 419.323C437.209 417.946 431.33 416.524 425.519 415.354C389.618 408.151 355.96 413.725 323.403 419.093C302.109 422.603 280.097 426.251 257.39 426.388H256.716C234.278 426.388 215.924 418.818 196.56 410.812C187.584 407.096 178.273 403.242 168.422 400.145C124.847 386.381 91.6165 393.263 53.7633 423.773C37.8098 436.62 23.6962 441.322 11.8488 437.721C-2.15256 433.477 -13.3268 418.199 -22.3245 391.015C-30.6491 365.78 -48.7342 338.665 -72.3392 344.813C-95.9441 350.961 -98.8387 384.522 -99.265 394.662C-99.265 396.635 -99.265 398.654 -99.422 400.672C-99.8484 419.369 -100.32 438.707 -112.885 451.141C-119.616 458.023 -129.31 461.624 -138.622 465.157C-151.299 469.974 -163.303 474.494 -168.868 486.354C-172.66 494.314 -172.099 503.329 -171.583 512.07C-170.846 518.672 -171.058 525.35 -172.211 531.89C-174.68 542.741 -182.443 551.045 -194.044 555.289C-202.571 558.196 -211.651 558.997 -220.54 557.626C-229.428 556.254 -237.872 552.749 -245.18 547.397C-264.253 532.486 -274.642 509.248 -284.716 486.767C-286.983 481.536 -289.473 475.985 -292.009 470.64Z" fill="url(#paint19_linear_0_201)"/>
<defs>
<linearGradient id="paint0_linear_0_201" x1="26645.5" y1="-864.405" x2="-75247.7" y2="-864.405" gradientUnits="userSpaceOnUse">
<stop stop-color="#6F6F6F"/>
<stop offset="0.11" stop-color="#5D5D5D"/>
<stop offset="0.22" stop-color="#363636"/>
<stop offset="0.34" stop-color="#131313"/>
<stop offset="0.4" stop-color="#060606"/>
<stop offset="0.47" stop-color="#0D0D0D"/>
<stop offset="0.56" stop-color="#1F1F1F"/>
<stop offset="0.66" stop-color="#3D3D3D"/>
<stop offset="0.75" stop-color="#5D5D5D"/>
<stop offset="1" stop-color="#6F6F6F"/>
</linearGradient>
<linearGradient id="paint1_linear_0_201" x1="58013.9" y1="-1433.51" x2="-176088" y2="-1433.51" gradientUnits="userSpaceOnUse">
<stop stop-color="#6F6F6F"/>
<stop offset="0.11" stop-color="#5D5D5D"/>
<stop offset="0.22" stop-color="#363636"/>
<stop offset="0.34" stop-color="#131313"/>
<stop offset="0.4" stop-color="#060606"/>
<stop offset="0.47" stop-color="#0D0D0D"/>
<stop offset="0.56" stop-color="#1F1F1F"/>
<stop offset="0.66" stop-color="#3D3D3D"/>
<stop offset="0.75" stop-color="#5D5D5D"/>
<stop offset="1" stop-color="#6F6F6F"/>
</linearGradient>
<linearGradient id="paint2_linear_0_201" x1="62365.6" y1="-2041.42" x2="-201588" y2="-2041.42" gradientUnits="userSpaceOnUse">
<stop stop-color="#6F6F6F"/>
<stop offset="0.11" stop-color="#5D5D5D"/>
<stop offset="0.22" stop-color="#363636"/>
<stop offset="0.34" stop-color="#131313"/>
<stop offset="0.4" stop-color="#060606"/>
<stop offset="0.47" stop-color="#0D0D0D"/>
<stop offset="0.56" stop-color="#1F1F1F"/>
<stop offset="0.66" stop-color="#3D3D3D"/>
<stop offset="0.75" stop-color="#5D5D5D"/>
<stop offset="1" stop-color="#6F6F6F"/>
</linearGradient>
<linearGradient id="paint3_linear_0_201" x1="109838" y1="-2791.01" x2="-380301" y2="-2791.01" gradientUnits="userSpaceOnUse">
<stop stop-color="#6F6F6F"/>
<stop offset="0.11" stop-color="#5D5D5D"/>
<stop offset="0.22" stop-color="#363636"/>
<stop offset="0.34" stop-color="#131313"/>
<stop offset="0.4" stop-color="#060606"/>
<stop offset="0.47" stop-color="#0D0D0D"/>
<stop offset="0.56" stop-color="#1F1F1F"/>
<stop offset="0.66" stop-color="#3D3D3D"/>
<stop offset="0.75" stop-color="#5D5D5D"/>
<stop offset="1" stop-color="#6F6F6F"/>
</linearGradient>
<linearGradient id="paint4_linear_0_201" x1="116070" y1="-4024.86" x2="-430611" y2="-4024.86" gradientUnits="userSpaceOnUse">
<stop stop-color="#6F6F6F"/>
<stop offset="0.11" stop-color="#5D5D5D"/>
<stop offset="0.22" stop-color="#363636"/>
<stop offset="0.34" stop-color="#131313"/>
<stop offset="0.4" stop-color="#060606"/>
<stop offset="0.47" stop-color="#0D0D0D"/>
<stop offset="0.56" stop-color="#1F1F1F"/>
<stop offset="0.66" stop-color="#3D3D3D"/>
<stop offset="0.75" stop-color="#5D5D5D"/>
<stop offset="1" stop-color="#6F6F6F"/>
</linearGradient>
<linearGradient id="paint5_linear_0_201" x1="109504" y1="-6171.65" x2="-438686" y2="-6171.65" gradientUnits="userSpaceOnUse">
<stop stop-color="#6F6F6F"/>
<stop offset="0.11" stop-color="#5D5D5D"/>
<stop offset="0.22" stop-color="#363636"/>
<stop offset="0.34" stop-color="#131313"/>
<stop offset="0.4" stop-color="#060606"/>
<stop offset="0.47" stop-color="#0D0D0D"/>
<stop offset="0.56" stop-color="#1F1F1F"/>
<stop offset="0.66" stop-color="#3D3D3D"/>
<stop offset="0.75" stop-color="#5D5D5D"/>
<stop offset="1" stop-color="#6F6F6F"/>
</linearGradient>
<linearGradient id="paint6_linear_0_201" x1="121968" y1="-8879.59" x2="-534081" y2="-8879.59" gradientUnits="userSpaceOnUse">
<stop stop-color="#6F6F6F"/>
<stop offset="0.11" stop-color="#5D5D5D"/>
<stop offset="0.22" stop-color="#363636"/>
<stop offset="0.34" stop-color="#131313"/>
<stop offset="0.4" stop-color="#060606"/>
<stop offset="0.47" stop-color="#0D0D0D"/>
<stop offset="0.56" stop-color="#1F1F1F"/>
<stop offset="0.66" stop-color="#3D3D3D"/>
<stop offset="0.75" stop-color="#5D5D5D"/>
<stop offset="1" stop-color="#6F6F6F"/>
</linearGradient>
<linearGradient id="paint7_linear_0_201" x1="129405" y1="-12108.3" x2="-613941" y2="-12108.3" gradientUnits="userSpaceOnUse">
<stop stop-color="#6F6F6F"/>
<stop offset="0.11" stop-color="#5D5D5D"/>
<stop offset="0.22" stop-color="#363636"/>
<stop offset="0.34" stop-color="#131313"/>
<stop offset="0.4" stop-color="#060606"/>
<stop offset="0.47" stop-color="#0D0D0D"/>
<stop offset="0.56" stop-color="#1F1F1F"/>
<stop offset="0.66" stop-color="#3D3D3D"/>
<stop offset="0.75" stop-color="#5D5D5D"/>
<stop offset="1" stop-color="#6F6F6F"/>
</linearGradient>
<linearGradient id="paint8_linear_0_201" x1="120317" y1="-13851" x2="-606722" y2="-13851" gradientUnits="userSpaceOnUse">
<stop stop-color="#6F6F6F"/>
<stop offset="0.11" stop-color="#5D5D5D"/>
<stop offset="0.22" stop-color="#363636"/>
<stop offset="0.34" stop-color="#131313"/>
<stop offset="0.4" stop-color="#060606"/>
<stop offset="0.47" stop-color="#0D0D0D"/>
<stop offset="0.56" stop-color="#1F1F1F"/>
<stop offset="0.66" stop-color="#3D3D3D"/>
<stop offset="0.75" stop-color="#5D5D5D"/>
<stop offset="1" stop-color="#6F6F6F"/>
</linearGradient>
<linearGradient id="paint9_linear_0_201" x1="113048" y1="-14145.5" x2="-593350" y2="-14145.5" gradientUnits="userSpaceOnUse">
<stop stop-color="#6F6F6F"/>
<stop offset="0.11" stop-color="#5D5D5D"/>
<stop offset="0.22" stop-color="#363636"/>
<stop offset="0.34" stop-color="#131313"/>
<stop offset="0.4" stop-color="#060606"/>
<stop offset="0.47" stop-color="#0D0D0D"/>
<stop offset="0.56" stop-color="#1F1F1F"/>
<stop offset="0.66" stop-color="#3D3D3D"/>
<stop offset="0.75" stop-color="#5D5D5D"/>
<stop offset="1" stop-color="#6F6F6F"/>
</linearGradient>
<linearGradient id="paint10_linear_0_201" x1="105870" y1="-14390.1" x2="-580661" y2="-14390.1" gradientUnits="userSpaceOnUse">
<stop stop-color="#6F6F6F"/>
<stop offset="0.11" stop-color="#5D5D5D"/>
<stop offset="0.22" stop-color="#363636"/>
<stop offset="0.34" stop-color="#131313"/>
<stop offset="0.4" stop-color="#060606"/>
<stop offset="0.47" stop-color="#0D0D0D"/>
<stop offset="0.56" stop-color="#1F1F1F"/>
<stop offset="0.66" stop-color="#3D3D3D"/>
<stop offset="0.75" stop-color="#5D5D5D"/>
<stop offset="1" stop-color="#6F6F6F"/>
</linearGradient>
<linearGradient id="paint11_linear_0_201" x1="98786" y1="-14744.2" x2="-568780" y2="-14744.2" gradientUnits="userSpaceOnUse">
<stop stop-color="#6F6F6F"/>
<stop offset="0.11" stop-color="#5D5D5D"/>
<stop offset="0.22" stop-color="#363636"/>
<stop offset="0.34" stop-color="#131313"/>
<stop offset="0.4" stop-color="#060606"/>
<stop offset="0.47" stop-color="#0D0D0D"/>
<stop offset="0.56" stop-color="#1F1F1F"/>
<stop offset="0.66" stop-color="#3D3D3D"/>
<stop offset="0.75" stop-color="#5D5D5D"/>
<stop offset="1" stop-color="#6F6F6F"/>
</linearGradient>
<linearGradient id="paint12_linear_0_201" x1="91795.8" y1="-15623.7" x2="-557128" y2="-15623.7" gradientUnits="userSpaceOnUse">
<stop stop-color="#6F6F6F"/>
<stop offset="0.11" stop-color="#5D5D5D"/>
<stop offset="0.22" stop-color="#363636"/>
<stop offset="0.34" stop-color="#131313"/>
<stop offset="0.4" stop-color="#060606"/>
<stop offset="0.47" stop-color="#0D0D0D"/>
<stop offset="0.56" stop-color="#1F1F1F"/>
<stop offset="0.66" stop-color="#3D3D3D"/>
<stop offset="0.75" stop-color="#5D5D5D"/>
<stop offset="1" stop-color="#6F6F6F"/>
</linearGradient>
<linearGradient id="paint13_linear_0_201" x1="85006.8" y1="-18461.2" x2="-545585" y2="-18461.2" gradientUnits="userSpaceOnUse">
<stop stop-color="#6F6F6F"/>
<stop offset="0.11" stop-color="#5D5D5D"/>
<stop offset="0.22" stop-color="#363636"/>
<stop offset="0.34" stop-color="#131313"/>
<stop offset="0.4" stop-color="#060606"/>
<stop offset="0.47" stop-color="#0D0D0D"/>
<stop offset="0.56" stop-color="#1F1F1F"/>
<stop offset="0.66" stop-color="#3D3D3D"/>
<stop offset="0.75" stop-color="#5D5D5D"/>
<stop offset="1" stop-color="#6F6F6F"/>
</linearGradient>
<linearGradient id="paint14_linear_0_201" x1="78380.3" y1="-26862.4" x2="-534164" y2="-26862.4" gradientUnits="userSpaceOnUse">
<stop stop-color="#6F6F6F"/>
<stop offset="0.11" stop-color="#5D5D5D"/>
<stop offset="0.22" stop-color="#363636"/>
<stop offset="0.34" stop-color="#131313"/>
<stop offset="0.4" stop-color="#060606"/>
<stop offset="0.47" stop-color="#0D0D0D"/>
<stop offset="0.56" stop-color="#1F1F1F"/>
<stop offset="0.66" stop-color="#3D3D3D"/>
<stop offset="0.75" stop-color="#5D5D5D"/>
<stop offset="1" stop-color="#6F6F6F"/>
</linearGradient>
<linearGradient id="paint15_linear_0_201" x1="73769.9" y1="-34457.7" x2="-522796" y2="-34457.7" gradientUnits="userSpaceOnUse">
<stop stop-color="#6F6F6F"/>
<stop offset="0.11" stop-color="#5D5D5D"/>
<stop offset="0.22" stop-color="#363636"/>
<stop offset="0.34" stop-color="#131313"/>
<stop offset="0.4" stop-color="#060606"/>
<stop offset="0.47" stop-color="#0D0D0D"/>
<stop offset="0.56" stop-color="#1F1F1F"/>
<stop offset="0.66" stop-color="#3D3D3D"/>
<stop offset="0.75" stop-color="#5D5D5D"/>
<stop offset="1" stop-color="#6F6F6F"/>
</linearGradient>
<linearGradient id="paint16_linear_0_201" x1="69872.8" y1="-56843.3" x2="-511449" y2="-56843.3" gradientUnits="userSpaceOnUse">
<stop stop-color="#6F6F6F"/>
<stop offset="0.11" stop-color="#5D5D5D"/>
<stop offset="0.22" stop-color="#363636"/>
<stop offset="0.34" stop-color="#131313"/>
<stop offset="0.4" stop-color="#060606"/>
<stop offset="0.47" stop-color="#0D0D0D"/>
<stop offset="0.56" stop-color="#1F1F1F"/>
<stop offset="0.66" stop-color="#3D3D3D"/>
<stop offset="0.75" stop-color="#5D5D5D"/>
<stop offset="1" stop-color="#6F6F6F"/>
</linearGradient>
<linearGradient id="paint17_linear_0_201" x1="65967" y1="-60641.9" x2="-500272" y2="-60641.9" gradientUnits="userSpaceOnUse">
<stop stop-color="#6F6F6F"/>
<stop offset="0.11" stop-color="#5D5D5D"/>
<stop offset="0.22" stop-color="#363636"/>
<stop offset="0.34" stop-color="#131313"/>
<stop offset="0.4" stop-color="#060606"/>
<stop offset="0.47" stop-color="#0D0D0D"/>
<stop offset="0.56" stop-color="#1F1F1F"/>
<stop offset="0.66" stop-color="#3D3D3D"/>
<stop offset="0.75" stop-color="#5D5D5D"/>
<stop offset="1" stop-color="#6F6F6F"/>
</linearGradient>
<linearGradient id="paint18_linear_0_201" x1="62128.3" y1="-64344.5" x2="-492771" y2="-64344.5" gradientUnits="userSpaceOnUse">
<stop stop-color="#6F6F6F"/>
<stop offset="0.11" stop-color="#5D5D5D"/>
<stop offset="0.22" stop-color="#363636"/>
<stop offset="0.34" stop-color="#131313"/>
<stop offset="0.4" stop-color="#060606"/>
<stop offset="0.47" stop-color="#0D0D0D"/>
<stop offset="0.56" stop-color="#1F1F1F"/>
<stop offset="0.66" stop-color="#3D3D3D"/>
<stop offset="0.75" stop-color="#5D5D5D"/>
<stop offset="1" stop-color="#6F6F6F"/>
</linearGradient>
<linearGradient id="paint19_linear_0_201" x1="58180.6" y1="-67533.9" x2="-491270" y2="-67533.9" gradientUnits="userSpaceOnUse">
<stop stop-color="#6F6F6F"/>
<stop offset="0.11" stop-color="#5D5D5D"/>
<stop offset="0.22" stop-color="#363636"/>
<stop offset="0.34" stop-color="#131313"/>
<stop offset="0.4" stop-color="#060606"/>
<stop offset="0.47" stop-color="#0D0D0D"/>
<stop offset="0.56" stop-color="#1F1F1F"/>
<stop offset="0.66" stop-color="#3D3D3D"/>
<stop offset="0.75" stop-color="#5D5D5D"/>
<stop offset="1" stop-color="#6F6F6F"/>
</linearGradient>
</defs>
</svg>
